<?xml version="1.0" standalone="no"?>
<!DOCTYPE svg PUBLIC "-//W3C//DTD SVG 20010904//EN"
 "http://www.w3.org/TR/2001/REC-SVG-20010904/DTD/svg10.dtd">
<svg version="1.0" xmlns="http://www.w3.org/2000/svg"
 width="341.000000pt" height="341.000000pt" viewBox="0 0 341.000000 341.000000"
 preserveAspectRatio="xMidYMid meet">
<metadata>
Created by potrace 1.14, written by Peter Selinger 2001-2017
</metadata>
<g transform="translate(0.000000,341.000000) scale(0.100000,-0.100000)"
fill="#000000" stroke="none">
<path d="M2058 1748 c-224 -672 -407 -1223 -405 -1224 1 -1 12 -4 23 -8 20 -6
41 53 408 1146 442 1320 431 1286 425 1291 -2 3 -13 7 -24 11 -19 5 -50 -82
-427 -1216z"/>
<path d="M80 2556 l0 -55 93 -3 92 -3 3 -757 2 -758 -95 0 -95 0 0 -60 0 -60
255 0 255 0 0 60 0 60 -95 0 -95 0 0 683 c0 376 3 687 6 690 4 4 46 -78 94
-181 123 -265 471 -996 479 -1004 6 -7 430 825 552 1082 l54 115 5 -682 5
-683 103 318 102 317 0 433 0 432 95 0 95 0 0 55 0 55 -208 0 -208 0 -267
-542 c-147 -298 -270 -538 -275 -534 -4 4 -120 247 -258 539 l-251 532 -221 3
-222 2 0 -54z"/>
<path d="M2582 2452 l-51 -159 124 -367 c69 -202 125 -369 125 -372 0 -2 -111
-5 -247 -6 l-247 -3 -17 -57 -17 -58 283 0 282 0 73 -212 c40 -117 75 -219 78
-225 3 -10 -22 -13 -107 -13 l-111 0 0 -60 0 -60 295 0 296 0 -3 58 -3 57 -65
3 -66 3 -274 792 c-150 436 -278 802 -285 815 -10 20 -17 4 -63 -136z"/>
</g>
</svg>
